<mxfile host="Electron" agent="Mozilla/5.0 (Windows NT 10.0; Win64; x64) AppleWebKit/537.36 (KHTML, like Gecko) draw.io/24.7.17 Chrome/128.0.6613.36 Electron/32.0.1 Safari/537.36" version="24.7.17">
  <diagram name="Página-1" id="9zFQKUBLeJXrVL7VNmQv">
    <mxGraphModel dx="1674" dy="836" grid="1" gridSize="10" guides="1" tooltips="1" connect="1" arrows="1" fold="1" page="1" pageScale="1" pageWidth="827" pageHeight="1169" math="0" shadow="0">
      <root>
        <mxCell id="0" />
        <mxCell id="1" parent="0" />
        <mxCell id="X1Eo1sHIrX_QFFsF9z0L-1" value="Paciente" style="shape=umlActor;verticalLabelPosition=bottom;verticalAlign=top;html=1;" vertex="1" parent="1">
          <mxGeometry x="180" y="150" width="30" height="60" as="geometry" />
        </mxCell>
        <mxCell id="X1Eo1sHIrX_QFFsF9z0L-2" value="Recepcionista" style="shape=umlActor;verticalLabelPosition=bottom;verticalAlign=top;html=1;" vertex="1" parent="1">
          <mxGeometry x="610" y="150" width="30" height="60" as="geometry" />
        </mxCell>
        <mxCell id="X1Eo1sHIrX_QFFsF9z0L-3" value="Consultar Solicitudes" style="ellipse;whiteSpace=wrap;html=1;" vertex="1" parent="1">
          <mxGeometry x="340" y="230" width="110" height="70" as="geometry" />
        </mxCell>
        <mxCell id="X1Eo1sHIrX_QFFsF9z0L-4" value="Aplicar filtros de búsqueda" style="ellipse;whiteSpace=wrap;html=1;" vertex="1" parent="1">
          <mxGeometry x="200" y="380" width="110" height="70" as="geometry" />
        </mxCell>
        <mxCell id="X1Eo1sHIrX_QFFsF9z0L-5" value="Mostrar Resultados" style="ellipse;whiteSpace=wrap;html=1;" vertex="1" parent="1">
          <mxGeometry x="490" y="378" width="110" height="70" as="geometry" />
        </mxCell>
        <mxCell id="X1Eo1sHIrX_QFFsF9z0L-6" value="Ver detalle de Solicitud" style="ellipse;whiteSpace=wrap;html=1;" vertex="1" parent="1">
          <mxGeometry x="340" y="480" width="110" height="70" as="geometry" />
        </mxCell>
        <mxCell id="X1Eo1sHIrX_QFFsF9z0L-7" value="" style="endArrow=classic;html=1;rounded=0;exitX=0.5;exitY=0.5;exitDx=0;exitDy=0;exitPerimeter=0;entryX=0;entryY=0.5;entryDx=0;entryDy=0;" edge="1" parent="1" source="X1Eo1sHIrX_QFFsF9z0L-1" target="X1Eo1sHIrX_QFFsF9z0L-3">
          <mxGeometry width="50" height="50" relative="1" as="geometry">
            <mxPoint x="730" y="450" as="sourcePoint" />
            <mxPoint x="780" y="400" as="targetPoint" />
          </mxGeometry>
        </mxCell>
        <mxCell id="X1Eo1sHIrX_QFFsF9z0L-8" value="" style="endArrow=classic;html=1;rounded=0;exitX=0.5;exitY=0.5;exitDx=0;exitDy=0;exitPerimeter=0;entryX=1;entryY=0.5;entryDx=0;entryDy=0;" edge="1" parent="1" source="X1Eo1sHIrX_QFFsF9z0L-2" target="X1Eo1sHIrX_QFFsF9z0L-3">
          <mxGeometry width="50" height="50" relative="1" as="geometry">
            <mxPoint x="630" y="350" as="sourcePoint" />
            <mxPoint x="680" y="300" as="targetPoint" />
          </mxGeometry>
        </mxCell>
        <mxCell id="X1Eo1sHIrX_QFFsF9z0L-9" value="include" style="html=1;verticalAlign=bottom;endArrow=block;curved=0;rounded=0;exitX=0;exitY=1;exitDx=0;exitDy=0;entryX=0.5;entryY=0;entryDx=0;entryDy=0;" edge="1" parent="1" source="X1Eo1sHIrX_QFFsF9z0L-3" target="X1Eo1sHIrX_QFFsF9z0L-4">
          <mxGeometry width="80" relative="1" as="geometry">
            <mxPoint x="750" y="430" as="sourcePoint" />
            <mxPoint x="830" y="430" as="targetPoint" />
          </mxGeometry>
        </mxCell>
        <mxCell id="X1Eo1sHIrX_QFFsF9z0L-10" value="extends" style="html=1;verticalAlign=bottom;startArrow=oval;startFill=1;endArrow=block;startSize=8;curved=0;rounded=0;exitX=0.5;exitY=0;exitDx=0;exitDy=0;entryX=0.5;entryY=1;entryDx=0;entryDy=0;" edge="1" parent="1" source="X1Eo1sHIrX_QFFsF9z0L-6" target="X1Eo1sHIrX_QFFsF9z0L-3">
          <mxGeometry width="60" relative="1" as="geometry">
            <mxPoint x="760" y="430" as="sourcePoint" />
            <mxPoint x="820" y="430" as="targetPoint" />
          </mxGeometry>
        </mxCell>
        <mxCell id="X1Eo1sHIrX_QFFsF9z0L-11" value="include" style="html=1;verticalAlign=bottom;endArrow=block;curved=0;rounded=0;exitX=1;exitY=1;exitDx=0;exitDy=0;entryX=0.5;entryY=0;entryDx=0;entryDy=0;" edge="1" parent="1" source="X1Eo1sHIrX_QFFsF9z0L-3" target="X1Eo1sHIrX_QFFsF9z0L-5">
          <mxGeometry width="80" relative="1" as="geometry">
            <mxPoint x="405" y="310" as="sourcePoint" />
            <mxPoint x="295" y="370" as="targetPoint" />
          </mxGeometry>
        </mxCell>
      </root>
    </mxGraphModel>
  </diagram>
</mxfile>
